<svg version="1.1" xmlns="http://www.w3.org/2000/svg" x="0" y="0" viewBox="0 0 26 26" xml:space="preserve"><style type="text/css">
	.st0{fill:#909999;}
	.st1{fill:none;enable-background:new    ;}
</style><path class="st0" d="M9.2 2.7c3.5 0 6.2 2.7 6.2 6.2 0 3.5-2.7 6.2-6.2 6.2 -3.5 0-6.2-2.7-6.2-6.2C2.9 5.5 5.7 2.7 9.2 2.7zM9.2 0.2c-4.9 0-8.7 3.9-8.7 8.7 0 4.9 3.9 8.7 8.7 8.7 2.1 0 4.1-0.8 5.6-2l0.6 0.6v1l7.9 7.9 2.1-2.1 -7.9-7.9h-1.1l-0.6-0.6c1.3-1.5 2.1-3.5 2.1-5.6C17.9 4.1 14 0.2 9.2 0.2z  "/></svg>